<?xml version="1.0" encoding="UTF-8"?>
<svg version="1.1" xmlns="http://www.w3.org/2000/svg" width="512" height="512">
<path d="M0 0 C168.96 0 337.92 0 512 0 C512 168.96 512 337.92 512 512 C343.04 512 174.08 512 0 512 C0 343.04 0 174.08 0 0 Z " fill="#0088FF" transform="translate(0,0)"/>
<path d="M0 0 C0.33 0 0.66 0 1 0 C1.06993164 0.66306152 1.13986328 1.32612305 1.21191406 2.00927734 C2.70322238 15.88899417 4.41414125 29.49563406 8 43 C8.36351562 44.37406006 8.36351562 44.37406006 8.734375 45.77587891 C14.12089542 65.80040061 21.24216701 84.70117143 31 103 C31.51167725 103.97332275 31.51167725 103.97332275 32.03369141 104.96630859 C47.71868558 134.63410615 71.16134084 162.74180798 98 183 C98.63212402 183.48146484 99.26424805 183.96292969 99.91552734 184.45898438 C111.09623563 192.92850763 122.66433939 200.32902931 135 207 C135.68271973 207.36963867 136.36543945 207.73927734 137.06884766 208.12011719 C171.66381476 226.61508605 208.95532888 235.46155508 248 237 C248 237.33 248 237.66 248 238 C166.16 238 84.32 238 0 238 C0 159.46 0 80.92 0 0 Z " fill="#1B71FF" transform="translate(0,274)"/>
<path d="M0 0 C78.54 0 157.08 0 238 0 C238 78.54 238 157.08 238 238 C237.67 238 237.34 238 237 238 C236.91548584 237.20754883 236.83097168 236.41509766 236.74389648 235.59863281 C233.02349037 201.71296924 225.42887867 169.15009419 209.04492188 138.92919922 C207.91254205 136.83852974 206.80871634 134.73385282 205.703125 132.62890625 C189.98275365 103.12429475 166.75200547 75.19278462 140 55 C139.36787598 54.51853516 138.73575195 54.03707031 138.08447266 53.54101562 C126.90376437 45.07149237 115.33566061 37.67097069 103 31 C102.31728027 30.63036133 101.63456055 30.26072266 100.93115234 29.87988281 C69.27543423 12.9562789 35.41811167 4.92226685 0 1 C0 0.67 0 0.34 0 0 Z " fill="#1B71FF" transform="translate(274,0)"/>
<path d="M0 0 C78.54 0 157.08 0 238 0 C238 0.33 238 0.66 238 1 C237.20754883 1.08451416 236.41509766 1.16902832 235.59863281 1.25610352 C201.71296924 4.97650963 169.15009419 12.57112133 138.92919922 28.95507812 C136.83852974 30.08745795 134.73385282 31.19128366 132.62890625 32.296875 C103.12429475 48.01724635 75.19278462 71.24799453 55 98 C54.51853516 98.63212402 54.03707031 99.26424805 53.54101562 99.91552734 C45.07149237 111.09623563 37.67097069 122.66433939 31 135 C30.63036133 135.68271973 30.26072266 136.36543945 29.87988281 137.06884766 C13.02550765 168.5950729 5.1878459 201.78160127 1 237 C0.67 237 0.34 237 0 237 C0 158.79 0 80.58 0 0 Z " fill="#1B71FF" transform="translate(0,0)"/>
<path d="M0 0 C0.33 0 0.66 0 1 0 C1 71.61 1 143.22 1 217 C-77.54 217 -156.08 217 -237 217 C-237 216.67 -237 216.34 -237 216 C-236.33693848 215.93006836 -235.67387695 215.86013672 -234.99072266 215.78808594 C-221.11100583 214.29677762 -207.50436594 212.58585875 -194 209 C-193.08395996 208.75765625 -192.16791992 208.5153125 -191.22412109 208.265625 C-171.19959939 202.87910458 -152.29882857 195.75783299 -134 186 C-133.02667725 185.48832275 -133.02667725 185.48832275 -132.03369141 184.96630859 C-102.36589385 169.28131442 -74.25819202 145.83865916 -54 119 C-53.51853516 118.36787598 -53.03707031 117.73575195 -52.54101562 117.08447266 C-44.07149237 105.90376437 -36.67097069 94.33566061 -30 82 C-29.63036133 81.31728027 -29.26072266 80.63456055 -28.87988281 79.93115234 C-20.69344608 64.61836585 -14.60572067 48.61722579 -9.625 32 C-9.12419922 30.33650513 -9.12419922 30.33650513 -8.61328125 28.6394043 C-6.77506403 22.31769586 -5.40138925 16.1094422 -4.51757812 9.58300781 C-3.75740552 5.78931621 -2.16605363 3.17687865 0 0 Z " fill="#1B71FF" transform="translate(511,295)"/>
<path d="M0 0 C0.85335937 0.38542969 1.70671875 0.77085937 2.5859375 1.16796875 C7.54318408 3.64659204 11.04659811 6.27455698 14 11 C13.8125 13.875 13.8125 13.875 13 16 C7.50252486 16.22800588 2.36040975 15.95185808 -3.0625 15 C-16.46054485 12.9998528 -33.6962982 10.52448063 -45.63671875 18.11328125 C-57.81923336 27.83915655 -64.04500708 39.01475045 -68 54 C-68.33837891 55.02480469 -68.33837891 55.02480469 -68.68359375 56.0703125 C-72.46071715 68.10500912 -70.42864032 82.33262475 -64.9375 93.5 C-64.29841315 94.67037592 -63.65275743 95.83719325 -63 97 C-62.66613281 97.71027344 -62.33226562 98.42054688 -61.98828125 99.15234375 C-60.68710794 101.58497211 -59.52839211 101.94650329 -57 103 C-56.01 103.515625 -55.02 104.03125 -54 104.5625 C-44.44644952 109.14024294 -30.90359024 108.22039393 -20.9375 105.4375 C-9.00452773 101.10649737 0.29450969 92.75259002 6 81.4375 C6.68132633 79.9650283 7.35376429 78.48820626 8 77 C7.1646875 76.87044922 7.1646875 76.87044922 6.3125 76.73828125 C-1.9683462 75.21359842 -8.40080612 71.7338185 -13.6796875 65.0703125 C-18.36301514 57.72663306 -20.24372467 49.61901196 -19 41 C-16.98156595 33.78100884 -14.07638206 27.70424252 -7.5 23.75 C-0.72251985 20.36125992 6.95799885 19.6850595 14.3515625 21.61328125 C21.0497842 24.54860234 24.86995273 30.09696805 27.65625 36.671875 C29.3288424 41.30831623 29.34247454 45.62028886 29.1875 50.5 C29.17396484 51.32242188 29.16042969 52.14484375 29.14648438 52.9921875 C29.11155016 54.99508221 29.05776057 56.99763356 29 59 C29.92167969 58.34644531 30.84335937 57.69289062 31.79296875 57.01953125 C35.29633188 54.81339393 36.95243293 54.52935267 41 55 C42 56 42 56 42.3125 59.1875 C41.86120295 64.69332398 39.6193485 67.50849481 35.625 71.1875 C33 73 33 73 29.953125 74.22265625 C26.78357327 75.73317907 26.78357327 75.73317907 25.8203125 78.828125 C25.59085937 79.95734375 25.36140625 81.0865625 25.125 82.25 C21.12125995 98.31479929 11.8503979 112.73495181 -2 122 C-14.810845 129.4160228 -26.36275788 132.5769442 -41.25 132.5 C-42.53108643 132.49427979 -43.81217285 132.48855957 -45.13208008 132.48266602 C-59.11332532 132.21870124 -70.13331517 129.17117372 -81 120 C-82.05960938 119.14148438 -82.05960938 119.14148438 -83.140625 118.265625 C-94.110501 108.46810216 -98.46986308 93.76284566 -99.3125 79.4921875 C-100.14948436 56.83781089 -92.73626441 35.28375693 -78 18 C-59.01033973 -2.43854668 -26.27597587 -12.48718977 0 0 Z " fill="#FBFDFF" transform="translate(227,192)"/>
<path d="M0 0 C5.39209737 3.40659609 9.35956223 7.75668685 11 14 C12.0856746 23.16678083 11.81348933 31.50144131 6 39 C1.56070431 43.36499785 -3.31879049 45.65222306 -9 48 C-8.13117188 48.76183594 -7.26234375 49.52367187 -6.3671875 50.30859375 C0.01886233 55.99268676 5.96936144 61.3376598 10 69 C10.40863281 69.70769531 10.81726563 70.41539062 11.23828125 71.14453125 C15.51473748 79.77092234 15.46673751 90.92351604 13.234375 100.171875 C11.44934265 104.84695972 9.00410465 108.99452713 6 113 C4.948125 114.4540625 4.948125 114.4540625 3.875 115.9375 C-4.18554062 125.2362562 -17.83345679 131.61743827 -30 133 C-43.08053254 133.79149719 -55.3243326 133.52724471 -66 125 C-72.61009905 118.93410589 -75.83104438 112.37538983 -76.50390625 103.38671875 C-76.86055509 90.85399962 -74.53530876 82.35188987 -66.5 72.4375 C-62.52311532 68.24258436 -59.16745949 66.18368301 -53.3125 65.6875 C-50 66 -50 66 -47 68 C-45.95742939 72.74267413 -46.98457275 77.35758352 -48.5 81.875 C-50.73525117 88.72977026 -51.02854948 95.58592561 -48.8125 102.5 C-46.82315252 106.34149858 -46.05346843 107.59009794 -42 109 C-35.6672855 109.86243194 -29.73543451 108.79532827 -24 106 C-19.58672277 102.43181841 -17.39031523 99.03628939 -16.6640625 93.38671875 C-16.5099187 82.73538206 -20.24154507 77.31501002 -27.3671875 69.63671875 C-30.19344152 66.80627148 -33.13554364 64.15449149 -36.125 61.5 C-41.32335609 56.85507795 -45.49641925 52.04418901 -49 46 C-49.35835937 45.40445313 -49.71671875 44.80890625 -50.0859375 44.1953125 C-53.64587798 36.8468115 -53.26515656 25.97220131 -51.2734375 18.14453125 C-50.34090123 15.94207771 -49.28761815 14.01243632 -48 12 C-47.67257813 11.3915625 -47.34515625 10.783125 -47.0078125 10.15625 C-37.57544968 -5.54140491 -15.11271193 -8.01695757 0 0 Z " fill="#FCFDFF" transform="translate(94,191)"/>
<path d="M0 0 C4.16950677 2.97118396 7.68839285 6.82209821 9.984375 11.4140625 C10.61187493 19.3452502 11.12617804 26.054464 5.984375 32.4140625 C-0.54365615 38.94209365 -7.90830738 41.89151045 -17.12475586 41.96875 C-18.55573608 41.94167969 -18.55573608 41.94167969 -20.015625 41.9140625 C-21.01150635 41.90632813 -22.0073877 41.89859375 -23.03344727 41.890625 C-32.06101553 41.68241329 -40.39637282 40.00562289 -49.015625 37.4140625 C-58.69653817 54.68002104 -64.19379081 75.13293799 -59.890625 94.8515625 C-57.9072055 101.63208962 -54.81270463 108.0450617 -48.703125 111.9765625 C-38.34967842 116.24439544 -25.52554026 113.8244865 -15.45703125 110.0234375 C-6.86840054 106.00696094 -0.55774388 100.53699961 5.1328125 93.00390625 C5.74382812 92.47925781 6.35484375 91.95460938 6.984375 91.4140625 C9.7109375 91.66796875 9.7109375 91.66796875 11.984375 92.4140625 C12.83511366 102.1818027 11.62482762 109.27452735 5.984375 117.4140625 C-2.16741553 126.94860251 -14.66207565 132.88893295 -27.015625 134.4140625 C-44.80530177 135.50402081 -61.82743206 135.27277146 -76.3046875 123.5625 C-85.2913809 115.11433504 -89.69426191 104.62280924 -90.265625 92.32421875 C-90.47949533 83.54459306 -89.82668703 75.02181136 -88.015625 66.4140625 C-87.64824219 64.64482422 -87.64824219 64.64482422 -87.2734375 62.83984375 C-84.1243098 49.50482071 -78.07973201 37.79761811 -70.16796875 26.6484375 C-68.84057037 24.54517823 -68.84057037 24.54517823 -69.140625 22.48046875 C-70.29318687 19.75857041 -71.66767943 17.19904973 -73.078125 14.6015625 C-75.5118901 9.83883559 -76.83977442 6.7121659 -76.015625 1.4140625 C-75.015625 0.4140625 -75.015625 0.4140625 -72.76953125 0.078125 C-68.99957365 0.53800635 -67.63878796 2.15736186 -64.953125 4.7890625 C-62.09764883 7.56094229 -59.7069249 9.86252305 -56.015625 11.4140625 C-55.42136719 10.96675781 -54.82710938 10.51945313 -54.21484375 10.05859375 C-39.52964565 -0.65269382 -17.71736704 -8.73302844 0 0 Z " fill="#FBFDFF" transform="translate(369.015625,189.5859375)"/>
<path d="M0 0 C1.00514648 -0.00563965 2.01029297 -0.0112793 3.04589844 -0.01708984 C13.01643568 0.07899995 22.19616502 1.26366371 31.125 5.875 C31.80844482 6.22433594 32.49188965 6.57367188 33.19604492 6.93359375 C39.01027547 10.06374627 43.31463017 13.72349971 46.9375 19.3125 C47.31261719 19.89 47.68773437 20.4675 48.07421875 21.0625 C51.98294208 28.98606584 51.02169777 41.50217107 48.75 49.875 C46.23705908 56.81213267 42.41289228 62.37129233 36.9375 67.3125 C36.009375 68.158125 35.08125 69.00375 34.125 69.875 C30.70655311 72.69544182 26.94271076 74.44800534 22.9375 76.3125 C23.329375 77.570625 23.72125 78.82875 24.125 80.125 C25.21089715 83.70538732 26.19848889 87.29771304 27.109375 90.92578125 C27.31796143 91.74908936 27.52654785 92.57239746 27.74145508 93.4206543 C28.15530142 95.0647167 28.56172415 96.71067054 28.9597168 98.35864258 C30.2932825 103.6314733 31.91962529 108.73460507 34.9375 113.3125 C37.25610784 114.80959519 37.25610784 114.80959519 39.9375 114.3125 C48.54195398 109.91022122 55.69208694 101.7931317 62.1484375 94.74609375 C63.9375 93.3125 63.9375 93.3125 67.9375 93.3125 C68.84450875 104.96924205 67.13770652 110.99796352 59.8046875 119.90234375 C52.69132972 127.70825617 42.39021363 134.53451803 31.64453125 135.65625 C19.83157535 136.13019006 19.83157535 136.13019006 15.1875 132.25 C8.91868568 126.02354253 8.09848065 117.64554732 6.875 109.3125 C6.70508545 108.20704834 6.5351709 107.10159668 6.36010742 105.96264648 C5.24346273 98.62538489 4.22087686 91.27843712 3.33203125 83.91015625 C3.0773778 81.33572394 3.0773778 81.33572394 1.9375 79.3125 C0.844375 78.879375 -0.24875 78.44625 -1.375 78 C-5.05945332 76.48376406 -7.01731842 74.83021231 -9.0625 71.3125 C-9.52334991 68.02071491 -9.72641954 66.22934127 -7.75 63.5 C-4.47224033 61.19342838 -1.49925116 61.17698643 2.375 61.1875 C3.79619141 61.18363281 3.79619141 61.18363281 5.24609375 61.1796875 C7.63890459 61.29776525 9.65086153 61.63137365 11.9375 62.3125 C19.24878191 54.96115627 22.01727205 49.01702374 22.3125 38.625 C22.14332491 32.80537683 21.52716584 29.01333836 17.390625 24.69921875 C8.54861363 16.50275246 -2.20086451 17.77749171 -13.55371094 18.17333984 C-22.56738888 18.67332003 -30.07755727 22.51702287 -37.96411133 26.61914062 C-42.61478219 28.96110312 -45.85323502 29.72842299 -51.0625 29.3125 C-52.0625 26.3125 -52.0625 26.3125 -51.19921875 24.33203125 C-43.16680471 12.09937915 -30.11058107 3.96647444 -15.86328125 0.77734375 C-10.57130374 0.13012348 -5.3278425 0.02846939 0 0 Z " fill="#FCFDFF" transform="translate(444.0625,187.6875)"/>
<path d="M0 0 C2.29944261 2.29944261 1.48608301 6.79977387 1.53442383 9.88330078 C1.27743766 23.34720039 -2.74490355 37.96990758 -6.88232422 50.71875 C-9.91092783 60.19015113 -9.46603103 69.85362502 -9.51123047 79.6953125 C-9.52700022 82.07319951 -9.55998475 84.45043611 -9.59375 86.828125 C-9.59072876 87.54494446 -9.58770752 88.26176392 -9.58459473 89.00030518 C-9.67297583 94.98539576 -10.87457623 99.81206377 -15.125 104.1875 C-20.51171592 107.58347308 -26.44385908 111.21974715 -33 110 C-37.15537157 107.1143253 -37.85851801 103.77965225 -39 99 C-41.97631639 68.70423212 -29.39161719 29.6960964 -12 5 C-8.47644004 1.03368904 -5.43064893 -0.75776497 0 0 Z " fill="#F9FCFF" transform="translate(433,216)"/>
<path d="M0 0 C3.31398937 0.78989352 3.72139168 1.20056692 6 4 C7.4636265 10.19226598 6.36341832 15.07148798 3.1875 20.5 C1.34588175 23.30107862 -0.55359266 25.7078706 -3 28 C-10.55621852 24.77848719 -15.30898982 17.32101489 -18.50390625 10.04296875 C-19.12060792 7.50332327 -19.08451611 6.38969133 -18 4 C-12.71433772 -1.42903467 -7.12589769 -0.83046176 0 0 Z " fill="#0389FF" transform="translate(82,205)"/>
<path d="M0 0 C1.73828125 1.6953125 1.73828125 1.6953125 2.30078125 5.1953125 C1.73828125 8.6953125 1.73828125 8.6953125 -0.4453125 10.39453125 C-7.92784555 13.85040296 -18.5455373 11.93549421 -26.26171875 9.6953125 C-26.92171875 9.0353125 -27.58171875 8.3753125 -28.26171875 7.6953125 C-20.80690231 1.56888091 -9.76398956 -5.6324223 0 0 Z " fill="#098CFF" transform="translate(357.26171875,206.3046875)"/>
<path d="M0 0 C1.2375 0.1546875 1.2375 0.1546875 2.5 0.3125 C4.56723714 3.41335571 4.74497423 4.04181681 4.6953125 7.54296875 C4.68564453 8.74663086 4.68564453 8.74663086 4.67578125 9.97460938 C4.65902344 10.80798828 4.64226562 11.64136719 4.625 12.5 C4.61597656 13.34498047 4.60695312 14.18996094 4.59765625 15.06054688 C4.57410703 17.14465243 4.53823647 19.22861217 4.5 21.3125 C-0.32597684 18.78346404 -1.7912518 16.59701476 -3.77734375 11.66796875 C-4.77188843 8.42629067 -4.91088326 5.66804665 -4.5 2.3125 C-2.5 0.3125 -2.5 0.3125 0 0 Z " fill="#0C8DFF" transform="translate(235.5,228.6875)"/>
</svg>
